<svg width="24" height="24" viewBox="0 0 24 24" fill="none" xmlns="http://www.w3.org/2000/svg">
<path d="M22.1703 2.75917H19.3985C19.4085 2.45215 19.4141 2.14332 19.4141 1.83301C19.4141 1.48348 19.1307 1.2002 18.7813 1.2002H5.22511C4.87558 1.2002 4.5923 1.48348 4.5923 1.83301C4.5923 2.14332 4.59774 2.45215 4.60779 2.75917H1.83594C1.48641 2.75917 1.20312 3.04245 1.20312 3.39198C1.20312 6.22747 1.94421 8.9026 3.28976 10.9248C4.61982 12.924 6.39153 14.0706 8.30529 14.1822C8.7392 14.6543 9.19799 15.0393 9.67573 15.333V18.1455H8.61412C7.33069 18.1455 6.28672 19.1897 6.28672 20.4729V21.5346H6.24173C5.8922 21.5346 5.60892 21.818 5.60892 22.1674C5.60892 22.5169 5.8922 22.8002 6.24173 22.8002H17.7645C18.114 22.8002 18.3973 22.5169 18.3973 22.1674C18.3973 21.818 18.114 21.5346 17.7645 21.5346H17.7195V20.4729C17.7195 19.1897 16.6754 18.1455 15.3921 18.1455H14.3305V15.333C14.8083 15.0393 15.2669 14.6543 15.7008 14.1822C17.6147 14.0706 19.3863 12.924 20.7165 10.9248C22.062 8.9026 22.8031 6.22747 22.8031 3.39198C22.8031 3.04245 22.5197 2.75917 22.1703 2.75917ZM4.34346 10.2238C3.23356 8.55571 2.58147 6.3743 2.4821 4.0248H4.67849C4.90673 6.91302 5.58469 9.58255 6.64432 11.7018C6.81307 12.0393 6.98957 12.3581 7.17266 12.6585C6.12011 12.261 5.14601 11.4301 4.34346 10.2238ZM19.6628 10.2238C18.8602 11.4301 17.8861 12.261 16.8336 12.6585C17.0168 12.3581 17.1932 12.0393 17.3619 11.7018C18.4216 9.58255 19.0994 6.91302 19.3278 4.0248H21.5242C21.4248 6.3743 20.7727 8.55571 19.6628 10.2238Z" fill="#637499"/>
</svg>
